<svg width="24" height="24" viewBox="0 0 24 24" fill="none" xmlns="http://www.w3.org/2000/svg">
<g id="Global Header / Account">
<path id="Union" fill-rule="evenodd" clip-rule="evenodd" d="M17 6.5C17 9.26142 14.7614 11.5 12 11.5C9.23858 11.5 7 9.26142 7 6.5C7 3.73858 9.23858 1.5 12 1.5C14.7614 1.5 17 3.73858 17 6.5ZM13.9054 12.1911C16.2851 11.3948 18 9.14765 18 6.5C18 3.18629 15.3137 0.5 12 0.5C8.68629 0.5 6 3.18629 6 6.5C6 9.14765 7.71493 11.3948 10.0946 12.1911C5.76104 13.0734 2.5 16.9059 2.5 21.5H3.5C3.5 16.8056 7.30558 13 12 13C16.6944 13 20.5 16.8056 20.5 21.5H21.5C21.5 16.9059 18.239 13.0734 13.9054 12.1911Z" fill="white"/>
</g>
</svg>
