<svg width="24" height="24" viewBox="0 0 24 24" fill="none" xmlns="http://www.w3.org/2000/svg">
<g id="Global Header / Bag - Mob">
<path id="Union" fill-rule="evenodd" clip-rule="evenodd" d="M12 0.5C9.51476 0.5 7.50004 2.51472 7.50004 5V5.59999L3.66712 5.59999H2.66541L2.72399 6.59999L3.66541 22.6677L20.3321 22.6677L21.2735 6.59999L21.3321 5.59999H20.3304L16.5 5.59999V5C16.5 2.51472 14.4853 0.5 12 0.5ZM15.5 5.59999V5C15.5 3.067 13.933 1.5 12 1.5C10.067 1.5 8.50004 3.067 8.50004 5V5.59999L15.5 5.59999ZM20.2718 6.59999L19.3889 21.6677L4.60853 21.6677L3.72571 6.59999L11.9987 6.59999L20.2718 6.59999Z" fill="white"/>
</g>
</svg>
