<?xml version="1.0" encoding="utf-8"?>
<!-- Generator: Adobe Illustrator 25.4.6, SVG Export Plug-In . SVG Version: 6.00 Build 0)  -->
<svg version="1.1" id="Layer_1" xmlns="http://www.w3.org/2000/svg" xmlns:xlink="http://www.w3.org/1999/xlink" x="0px" y="0px"
	 viewBox="0 0 612 792" style="enable-background:new 0 0 612 792;" xml:space="preserve">
<style type="text/css">
	.st0{fill:#2F3135;}
</style>
<g>
	<path class="st0" d="M455.74,479.95c9.13,0.12,22.72-3.05,25.62-8.2c-21.92,2.46-45.32-6.51-58.04-14.21
		c-27.27-16.49-29.36-27.67-43.57-37.28c-4.04-2.73-10.94-8.42-12.43-13.75c-0.1-0.34-3.84,8.6-8.32,12.23
		c-0.57,0.46-2.43,1.88-2.84,2.49c3.48-0.46,5.1-0.03,6.3,0.41c6.27,2.31,5.38,6.29,10.22,6.67c5.94,0.46,24.18,20.41,24.18,20.41
		c-0.4,4.28-4.44,1.52-19.19-10.88c-3.48-2.92-6.44-0.44-9.68-1.41c-5.8-1.68-2.77-4.69-9.7-7.14c-4.01-1.42-7.34-2.14-16.27,4.52
		c-14.57,10.88-32.81,18.48-53.41,23.96c-1.8,0.48-1.99,2.95-0.29,3.71c4.23,1.91,9.91,4.3,12.24,4.5
		c9.96,0.85,20.23,10.54,26.58,10.63c3.9,0.06,13.56,5.74,17.33,5.21c5.81-1.17,20.78,8.52,25.22,4.86
		c2.68-0.87,6.92,0.31,10.78,1.5c6.96,2.5,14.03,5.87,21.36,7.1c2.9,0.49,5.94-0.31,7.94-2.47c1.23-1.33,6.33-1.95,13.37-0.62
		c4.33,0.84,14.52,2.9,18.33-0.5c-4.89-1.43-1.28-4.61,3.05-3.99c4.74,0.65,12.78,1.71,16.61-2.52
		C456.71,484.91,451.75,479.89,455.74,479.95z"/>
	<path class="st0" d="M361.5,386.33c1.17-9.71-1.42-13.12,5.28-24.78c6.51-11.31,24.68-33.2,44.78-32.39
		c12.93,1.65,18.79-1.18,26.87-6.17c5.64-0.97,12.37-1.12,16.15-1.43c3.93-0.31,1.31-2.4-0.69-2.9c-0.62-0.19-0.5-0.34-0.03-0.47
		c5.77-1.34,4.96-3.58-8.48-4.77c-5.86-0.69-10.85-3.02-13.99-6.67c-3.83-2.77-10.25-2.4-13.34,0.5c-2.49,0.03-4.92,0.9-6.48,2.56
		c-10.19,1.75-18.95,6.48-26.06,12.06c-11.44,9.01-23.38,21.63-41.77,35.81c-9.29,7.14-24.39,9.6-34.44,7.01
		c-2.49-0.64-12.53-2.59-18.95-10.97c-5.17-5.33-6.67-13.12-13.15-17.89c-6.42-4.71-13.58-5.14-22.88-12.69
		c-32.48-26.37-60.23-64.53-62.21-112.58c-3.87,1.93-7.82,6.73-10.85,14.31c-1.78,4.46-5.05,2.52-4.99-6.39
		c-6.7,3.24-11.75,14.71-11.97,20.1c-0.16,4.43-4.33,4.11-5.17-1.71c-3.83,4.39-3.62,12.87-0.93,22.75
		c0.56,2.09-1.46,5.45-3.12,1.09c-4.49,8.54,8.73,26.96-0.12,23.53c-1.15,4.8,2.62,12.9,4.18,16.71c1.99,4.96,6.51,10.78,3.27,10.78
		c0.53,11.72,15.12,21.32,11.59,23.28c-0.93,3.58,6.76,7.73,6.7,11c-0.31,13,11.84,21.32,12.9,27.74
		c1.31,8.23,10.66,13.9,12.28,18.36c3.6,9.88,20.48,21.22,30.85,26.65c3.15,1.65-0.16,7.81-11.55,13.96
		c-9.97,5.38-26.94,4.52-40.78,15.65c4.61,1.5-4.33,4.18-1.68,8.38c4.61,1.5-3.62,8.17-0.9,11.31c6.7,1.22-1.56,6.17,1.46,10.22
		c3.87-1.71,6.92,1.47,4.55,5.45c4.02,3.12,7.11,2.43,9.69,1.81c1.18,0.94,2.15,2.43,1.59,4.05c5.24,0.84,7.7,0.44,10.1-1.37
		c0.69,0.93,0.72,2.09,0.62,3.05c3.34,0.44,8.48-1.87,8.48-1.87s0.19,1.37-0.19,2.49c4.18-0.9,12.81-5.49,20.04-16.64
		c4.61-7.08,16.82-13.75,25.62-16.99C308.31,441.92,356.92,424.46,361.5,386.33z M397.01,316.95c2.24-1.62,10.19-4.52,12.72-4.77
		c0.5-0.06-3.21,1.37-4.18,4.27c-1.09,3.24,0.53,5.3,2.34,6.51c1.53,1.09,0.81,2.46-3.4,3.18c-3.96,0.65-6.73-1.65-8.17-3.15
		C393.61,320.16,393.42,319.5,397.01,316.95z M336.15,376.52c-1.03,1.36-2.94,3.89-4.22,7.67c-3.57,10.47-10.13,23.13-29.4,28.23
		c-0.11,0.03-0.22,0.04-0.33,0.04c-0.38,0-0.75-0.17-1-0.47c-4.69-5.7-1.23-11.12,0.63-14.03c0.3-0.47,0.68-1.06,0.9-1.49
		c-0.07,0-0.16-0.01-0.25-0.01c-8.59,0-9.81-2.89-10.43-6.39c-0.32-1.79-0.55-3.08-2.77-3.95c-7.15-2.8-15.34-8.08-15.18-24.23
		c0.12-12.53-6.87-18.33-6.94-18.39c-0.46-0.37-0.61-1.01-0.36-1.55c0.24-0.54,0.83-0.84,1.4-0.74c0.6,0.11,5.96,1.41,9.7,13.83
		c5.33,17.72,22.18,20.68,29.38,21.95l1.05,0.19c3.58,0.66,16.19,0.66,21.92-1.79l2.13-0.92c3.08-1.34,3.73-1.62,4.46-0.68
		C337.53,374.68,336.92,375.49,336.15,376.52z"/>
</g>
</svg>
