<svg width="24" height="24" viewBox="0 0 24 24" fill="none" xmlns="http://www.w3.org/2000/svg">
<g id="Global Header / Search - Mobile">
<path id="Union" fill-rule="evenodd" clip-rule="evenodd" d="M2.77271 9.87401C2.77271 5.99131 5.92026 2.84375 9.80297 2.84375C13.6857 2.84375 16.8332 5.99131 16.8332 9.87401C16.8332 13.7567 13.6857 16.9043 9.80297 16.9043C5.92026 16.9043 2.77271 13.7567 2.77271 9.87401ZM9.80297 1.84375C5.36798 1.84375 1.77271 5.43902 1.77271 9.87401C1.77271 14.309 5.36798 17.9043 9.80297 17.9043C11.8234 17.9043 13.6695 17.1581 15.0808 15.9264L21.2371 22.0156L21.5926 22.3672L22.2958 21.6563L21.9403 21.3047L15.7922 15.2234C17.0615 13.8032 17.8332 11.9287 17.8332 9.87401C17.8332 5.43902 14.238 1.84375 9.80297 1.84375Z" fill="white"/>
</g>
</svg>
